<svg width="40.000000" height="40.000000" viewBox="0 0 40 40" fill="none" xmlns="http://www.w3.org/2000/svg" xmlns:xlink="http://www.w3.org/1999/xlink">
	<desc>
			Created with Pixso.
	</desc>
	<defs/>
	<path id="Subtract" d="M20 0C26.85 0 32.9 3.44 36.5 8.7L22.5 22.71L14.26 14.48C13.29 13.5 11.7 13.5 10.73 14.48L0.54 24.66C0.18 23.16 0 21.6 0 20C0 8.95 8.95 0 20 0ZM24.26 28.01L38.88 13.4C39.6 15.46 40 17.68 40 20C40 31.04 31.04 40 20 40C12.49 40 5.95 35.86 2.53 29.75L12.5 19.78L20.73 28.01C21.7 28.99 23.29 28.99 24.26 28.01Z" fill="#EF2A82" fill-opacity="1.000000" fill-rule="evenodd"/>
</svg>
